<svg width="200" height="112" viewBox="0 0 200 112" fill="none" xmlns="http://www.w3.org/2000/svg">
<mask id="mask0_60_15" style="mask-type:luminance" maskUnits="userSpaceOnUse" x="0" y="0" width="200" height="112">
<path d="M200 0H0V111.538H200V0Z" fill="white"/>
<path d="M58.6677 105.231C44.1754 105.231 31.9907 100.754 22.1137 91.7998C12.2368 82.8459 7.29834 70.5228 7.29834 54.8305C7.29834 40.3382 11.8676 28.2459 21.006 18.5536C30.2368 8.86129 42.7907 4.01514 58.6677 4.01514C65.8677 4.01514 73.0215 5.63052 80.1292 8.86129C87.2369 11.9998 93.4215 16.7536 98.683 23.1228L79.4369 39.5998C73.4369 32.769 66.5138 29.3536 58.6677 29.3536C52.2061 29.3536 46.6215 31.6151 41.9137 36.1382C37.2983 40.6613 34.9907 46.8921 34.9907 54.8305C34.9907 61.8459 37.1137 67.7998 41.3599 72.6921C45.6984 77.4921 51.4677 79.8921 58.6677 79.8921C62.5446 79.8921 66.3753 78.969 70.16 77.1228C73.9446 75.2767 77.0369 72.8767 79.4369 69.9228L98.683 86.5382C94.16 92.0767 88.4369 96.5998 81.5138 100.107C74.5907 103.523 66.9753 105.231 58.6677 105.231ZM129.013 103.846V5.53821H155.46V80.4459H194.506V103.846H129.013Z" fill="black"/>
</mask>
<g mask="url(#mask0_60_15)">
<path d="M21.3398 18.3418L18.5642 15.6954L18.551 15.7094L21.3398 18.3418ZM80.26 8.67205L78.674 12.1655L78.7115 12.1823L80.26 8.67205ZM98.7502 22.9003L101.243 25.8152L104.104 23.3633L101.705 20.4565L98.7502 22.9003ZM79.5701 39.3389L76.6904 41.8712L79.188 44.7178L82.0627 42.2536L79.5701 39.3389ZM42.1757 35.8854L39.52 33.1182L39.4929 33.1448L42.1757 35.8854ZM41.6238 72.354L38.7291 74.8693L38.7544 74.8985L38.7802 74.9269L41.6238 72.354ZM79.5701 69.5913L82.0749 66.6869L79.0856 64.1033L76.5953 67.1715L79.5701 69.5913ZM98.7502 86.1679L101.719 88.5949L104.078 85.7032L101.255 83.2635L98.7502 86.1679ZM81.6399 99.7055L83.3356 103.147L83.372 103.128L81.6399 99.7055ZM58.8722 100.979C45.2912 100.979 34.092 96.8092 25.0181 88.5742L19.8693 94.2602C30.4814 103.891 43.5679 108.654 58.8722 108.654V100.979ZM25.0181 88.5742C16.1196 80.4985 11.5121 69.3169 11.5121 54.5341H3.84619C3.84619 71.0628 9.08167 84.47 19.8693 94.2602L25.0181 88.5742ZM11.5121 54.5341C11.5121 40.9603 15.7539 29.8662 24.1286 20.9741L18.551 15.7094C8.71152 26.1567 3.84619 39.1909 3.84619 54.5341H11.5121ZM24.1154 20.9881C32.4571 12.2196 43.8872 7.67438 58.8722 7.67438V0C42.2121 0 28.6206 5.12444 18.5642 15.6954L24.1154 20.9881ZM58.8722 7.67438C65.4553 7.67438 72.046 9.14959 78.674 12.1655L81.8461 5.1788C74.3071 1.74827 66.6393 0 58.8722 0V7.67438ZM78.7115 12.1823C85.2153 15.0571 90.9068 19.4201 95.795 25.3442L101.705 20.4565C96.1066 13.6718 89.4714 8.54922 81.8082 5.16183L78.7115 12.1823ZM96.2572 19.9855L77.0772 36.424L82.0627 42.2536L101.243 25.8152L96.2572 19.9855ZM82.4498 36.8066C75.8702 29.3078 67.9739 25.2794 58.8722 25.2794V32.9538C65.4089 32.9538 71.3109 35.7402 76.6904 41.8712L82.4498 36.8066ZM58.8722 25.2794C51.4312 25.2794 44.9174 27.927 39.52 33.1182L44.8313 38.6524C48.8172 34.8186 53.434 32.9538 58.8722 32.9538V25.2794ZM39.4929 33.1448C33.9961 38.5377 31.4435 45.8341 31.4435 54.5341H39.1094C39.1094 47.3943 41.1562 42.2582 44.8585 38.626L39.4929 33.1448ZM31.4435 54.5341C31.4435 62.3747 33.8403 69.2302 38.7291 74.8693L44.5185 69.8388C40.9441 65.7161 39.1094 60.6917 39.1094 54.5341H31.4435ZM38.7802 74.9269C43.9171 80.6167 50.749 83.3744 58.8722 83.3744V75.7001C52.6444 75.7001 47.9778 73.669 44.4675 69.7812L38.7802 74.9269ZM58.8722 83.3744C63.3671 83.3744 67.7562 82.2981 72.0054 80.2233L68.6447 73.3256C65.3502 74.9346 62.1045 75.7001 58.8722 75.7001V83.3744ZM72.0054 80.2233C76.2243 78.1628 79.7656 75.4353 82.5449 72.011L76.5953 67.1715C74.5907 69.6411 71.969 71.7025 68.6447 73.3256L72.0054 80.2233ZM77.0653 72.4956L96.2454 89.0723L101.255 83.2635L82.0749 66.6869L77.0653 72.4956ZM95.7812 83.7409C91.6401 88.8175 86.3709 93.0043 79.9074 96.2827L83.372 103.128C90.7071 99.4078 96.8452 94.5694 101.719 88.5949L95.7812 83.7409ZM79.9442 96.2643C73.6118 99.3916 66.609 100.979 58.8722 100.979V108.654C67.6937 108.654 75.8694 106.835 83.3356 103.147L79.9442 96.2643ZM128.976 103.435H125.144V107.272H128.976V103.435ZM128.976 5.35672V1.51953H125.144V5.35672H128.976ZM155.332 5.35672H159.165V1.51953H155.332V5.35672ZM155.332 80.0898H151.499V83.927H155.332V80.0898ZM194.244 80.0898H198.077V76.2526H194.244V80.0898ZM194.244 103.435V107.272H198.077V103.435H194.244ZM132.809 103.435V5.35672H125.144V103.435H132.809ZM128.976 9.19391H155.332V1.51953H128.976V9.19391ZM151.499 5.35672V80.0898H159.165V5.35672H151.499ZM155.332 83.927H194.244V76.2526H155.332V83.927ZM190.411 80.0898V103.435H198.077V80.0898H190.411ZM194.244 99.5981H128.976V107.272H194.244V99.5981Z" fill="white"/>
</g>
</svg>
