<svg width="71" height="71" viewBox="0 0 71 71" fill="none" xmlns="http://www.w3.org/2000/svg">
<rect width="71" height="71" rx="10" fill="black"/>
<mask id="path-2-outside-1_80_5" maskUnits="userSpaceOnUse" x="10" y="19" width="52" height="29" fill="black">
<rect fill="white" x="10" y="19" width="52" height="29"/>
<path d="M25.2536 46.36C21.4856 46.36 18.3176 45.196 15.7496 42.868C13.1816 40.54 11.8976 37.336 11.8976 33.256C11.8976 29.488 13.0856 26.344 15.4616 23.824C17.8616 21.304 21.1256 20.044 25.2536 20.044C27.1256 20.044 28.9856 20.464 30.8336 21.304C32.6816 22.12 34.2896 23.356 35.6576 25.012L30.6536 29.296C29.0936 27.52 27.2936 26.632 25.2536 26.632C23.5736 26.632 22.1216 27.22 20.8976 28.396C19.6976 29.572 19.0976 31.192 19.0976 33.256C19.0976 35.08 19.6496 36.628 20.7536 37.9C21.8816 39.148 23.3816 39.772 25.2536 39.772C26.2616 39.772 27.2576 39.532 28.2416 39.052C29.2256 38.572 30.0296 37.948 30.6536 37.18L35.6576 41.5C34.4816 42.94 32.9936 44.116 31.1936 45.028C29.3936 45.916 27.4136 46.36 25.2536 46.36ZM43.5435 46V20.44H50.4195V39.916H60.5715V46H43.5435Z"/>
</mask>
<path d="M15.7496 42.868L15.0779 43.6089L15.0779 43.6089L15.7496 42.868ZM15.4616 23.824L14.7374 23.1343L14.734 23.138L15.4616 23.824ZM30.8336 21.304L30.4198 22.2144L30.4296 22.2188L30.8336 21.304ZM35.6576 25.012L36.3079 25.7716L37.0543 25.1326L36.4285 24.3751L35.6576 25.012ZM30.6536 29.296L29.9023 29.9559L30.5539 30.6978L31.3039 30.0556L30.6536 29.296ZM20.8976 28.396L20.2047 27.6749L20.1976 27.6818L20.8976 28.396ZM20.7536 37.9L19.9984 38.5555L20.005 38.5631L20.0117 38.5705L20.7536 37.9ZM28.2416 39.052L28.68 39.9508L28.68 39.9508L28.2416 39.052ZM30.6536 37.18L31.3071 36.4231L30.5272 35.7498L29.8775 36.5494L30.6536 37.18ZM35.6576 41.5L36.4321 42.1325L37.0476 41.3789L36.3111 40.7431L35.6576 41.5ZM31.1936 45.028L31.636 45.9249L31.6455 45.92L31.1936 45.028ZM25.2536 45.36C21.7104 45.36 18.7886 44.2732 16.4212 42.1271L15.0779 43.6089C17.8466 46.1188 21.2608 47.36 25.2536 47.36V45.36ZM16.4212 42.1271C14.0997 40.0225 12.8976 37.1085 12.8976 33.256H10.8976C10.8976 37.5635 12.2635 41.0575 15.0779 43.6089L16.4212 42.1271ZM12.8976 33.256C12.8976 29.7186 14.0042 26.8274 16.1892 24.51L14.734 23.138C12.1669 25.8606 10.8976 29.2574 10.8976 33.256H12.8976ZM16.1857 24.5137C18.362 22.2285 21.3441 21.044 25.2536 21.044V19.044C20.9071 19.044 17.3611 20.3795 14.7374 23.1343L16.1857 24.5137ZM25.2536 21.044C26.9711 21.044 28.6906 21.4284 30.4198 22.2144L31.2474 20.3936C29.2805 19.4996 27.28 19.044 25.2536 19.044V21.044ZM30.4296 22.2188C32.1264 22.968 33.6113 24.105 34.8866 25.6489L36.4285 24.3751C34.9679 22.607 33.2368 21.272 31.2375 20.3892L30.4296 22.2188ZM35.0072 24.2524L30.0032 28.5364L31.3039 30.0556L36.3079 25.7716L35.0072 24.2524ZM31.4049 28.6361C29.6883 26.6818 27.6282 25.632 25.2536 25.632V27.632C26.959 27.632 28.4988 28.3582 29.9023 29.9559L31.4049 28.6361ZM25.2536 25.632C23.3123 25.632 21.6129 26.322 20.2048 27.6749L21.5904 29.1171C22.6303 28.118 23.8348 27.632 25.2536 27.632V25.632ZM20.1976 27.6818C18.7636 29.0872 18.0976 30.9887 18.0976 33.256H20.0976C20.0976 31.3953 20.6316 30.0568 21.5975 29.1102L20.1976 27.6818ZM18.0976 33.256C18.0976 35.2993 18.7229 37.0859 19.9984 38.5555L21.5088 37.2445C20.5763 36.1701 20.0976 34.8607 20.0976 33.256H18.0976ZM20.0117 38.5705C21.3519 40.0533 23.1343 40.772 25.2536 40.772V38.772C23.6288 38.772 22.4113 38.2427 21.4955 37.2295L20.0117 38.5705ZM25.2536 40.772C26.4263 40.772 27.5714 40.4915 28.68 39.9508L27.8032 38.1532C26.9437 38.5725 26.0969 38.772 25.2536 38.772V40.772ZM28.68 39.9508C29.7807 39.4138 30.7046 38.703 31.4297 37.8106L29.8775 36.5494C29.3545 37.193 28.6705 37.7302 27.8032 38.1532L28.68 39.9508ZM30.0001 37.9369L35.0041 42.2569L36.3111 40.7431L31.3071 36.4231L30.0001 37.9369ZM34.883 40.8675C33.8026 42.1905 32.4279 43.2816 30.7416 44.136L31.6455 45.92C33.5592 44.9504 35.1606 43.6895 36.4321 42.1325L34.883 40.8675ZM30.7512 44.1312C29.0991 44.9462 27.2721 45.36 25.2536 45.36V47.36C27.5551 47.36 29.6881 46.8858 31.636 45.9248L30.7512 44.1312ZM43.5435 46H42.5435V47H43.5435V46ZM43.5435 20.44V19.44H42.5435V20.44H43.5435ZM50.4195 20.44H51.4195V19.44H50.4195V20.44ZM50.4195 39.916H49.4195V40.916H50.4195V39.916ZM60.5715 39.916H61.5715V38.916H60.5715V39.916ZM60.5715 46V47H61.5715V46H60.5715ZM44.5435 46V20.44H42.5435V46H44.5435ZM43.5435 21.44H50.4195V19.44H43.5435V21.44ZM49.4195 20.44V39.916H51.4195V20.44H49.4195ZM50.4195 40.916H60.5715V38.916H50.4195V40.916ZM59.5715 39.916V46H61.5715V39.916H59.5715ZM60.5715 45H43.5435V47H60.5715V45Z" fill="white" mask="url(#path-2-outside-1_80_5)"/>
</svg>
