<svg width="1262" height="201" viewBox="0 0 1262 201" fill="none" xmlns="http://www.w3.org/2000/svg">
<path d="M78.94 200.7C67.06 200.7 56.26 198.45 46.54 193.95C36.82 189.27 28.54 182.61 21.7 173.97C14.86 165.15 9.55 154.53 5.77 142.11C1.99 129.69 0.1 115.83 0.1 100.53C0.1 85.05 1.9 71.19 5.5 58.95C9.28 46.71 14.59 36.27 21.43 27.63C28.45 18.81 36.82 12.15 46.54 7.64999C56.44 3.14999 67.42 0.899995 79.48 0.899995C93.52 0.899995 105.85 4.04999 116.47 10.35C127.09 16.47 135.55 25.29 141.85 36.81C148.15 48.33 151.75 62.1 152.65 78.12H113.5C112.42 62.64 108.82 51.21 102.7 43.83C96.58 36.27 88.75 32.49 79.21 32.49C71.29 32.49 64.36 34.92 58.42 39.78C52.66 44.46 48.25 51.75 45.19 61.65C42.13 71.55 40.6 84.24 40.6 99.72C40.6 115.2 42.13 128.16 45.19 138.6C48.43 148.86 52.93 156.51 58.69 161.55C64.63 166.59 71.56 169.11 79.48 169.11C88.48 169.11 96.04 165.33 102.16 157.77C108.28 150.21 111.97 138.87 113.23 123.75H152.92C151.66 139.59 147.88 153.27 141.58 164.79C135.28 176.31 126.73 185.22 115.93 191.52C105.31 197.64 92.98 200.7 78.94 200.7ZM210.451 198V117.27L151.051 3.59999H196.951L243.391 105.66H222.331L268.501 3.59999H309.541L250.141 117.27V198H210.451ZM325.598 198V3.59999H395.258C408.398 3.59999 419.738 6.11999 429.278 11.16C438.818 16.02 446.198 23.04 451.418 32.22C456.638 41.22 459.248 51.93 459.248 64.35C459.248 76.59 456.638 87.3 451.418 96.48C446.198 105.48 438.818 112.5 429.278 117.54C419.918 122.4 408.578 124.83 395.258 124.83H356.918V94.05H393.908C402.188 94.05 408.488 91.53 412.808 86.49C417.128 81.27 419.288 73.8 419.288 64.08C419.288 54.36 417.128 46.98 412.808 41.94C408.488 36.9 402.188 34.38 393.908 34.38H365.558V198H325.598ZM478.527 198V3.59999H518.487V198H478.527ZM577.077 198V3.59999H617.037V198H577.077ZM497.967 81.36H595.977V112.14H497.967V81.36ZM644.113 198V3.59999H684.073V198H644.113ZM663.553 198V167.22H760.213V198H663.553ZM663.553 113.22V83.25H753.193V113.22H663.553ZM663.553 34.38V3.59999H757.513V34.38H663.553ZM780.946 198V3.59999H848.176C860.776 3.59999 871.756 6.02999 881.116 10.89C890.476 15.75 897.676 22.5 902.716 31.14C907.936 39.6 910.546 49.5 910.546 60.84C910.546 72.18 907.936 82.08 902.716 90.54C897.676 99 890.476 105.66 881.116 110.52C871.756 115.2 860.776 117.54 848.176 117.54H812.266V88.65H846.556C854.656 88.65 860.956 86.31 865.456 81.63C869.956 76.77 872.206 70.02 872.206 61.38C872.206 52.74 869.956 46.08 865.456 41.4C860.956 36.72 854.656 34.38 846.556 34.38H820.906V198H780.946ZM870.316 198L813.346 97.02H853.306L918.916 198H870.316ZM933.889 198V3.59999H973.849V198H933.889ZM953.329 198V167.22H1041.89V198H953.329ZM1065.2 198V3.59999H1105.16V198H1065.2ZM1164.57 198V168.84H1197.24C1205.16 168.84 1211.19 166.41 1215.33 161.55C1219.65 156.51 1221.81 149.49 1221.81 140.49C1221.81 130.95 1219.56 123.57 1215.06 118.35C1210.56 113.13 1204.17 110.52 1195.89 110.52H1164.57V81.9H1194.54C1201.92 81.9 1207.59 79.92 1211.55 75.96C1215.69 71.82 1217.76 65.61 1217.76 57.33C1217.76 49.23 1215.78 43.11 1211.82 38.97C1208.04 34.83 1202.55 32.76 1195.35 32.76H1164.57V3.59999H1203.45C1219.29 3.59999 1232.16 8.00999 1242.06 16.83C1251.96 25.65 1256.91 37.62 1256.91 52.74C1256.91 62.28 1254.93 70.47 1250.97 77.31C1247.19 84.15 1241.97 89.37 1235.31 92.97C1228.83 96.57 1221.63 98.37 1213.71 98.37L1214.52 92.7C1223.16 92.7 1230.99 94.86 1238.01 99.18C1245.21 103.5 1250.97 109.62 1255.29 117.54C1259.61 125.28 1261.77 134.46 1261.77 145.08C1261.77 155.7 1259.43 165.06 1254.75 173.16C1250.07 181.08 1243.59 187.2 1235.31 191.52C1227.03 195.84 1217.31 198 1206.15 198H1164.57ZM1132.17 198V3.59999H1172.13V198H1132.17Z" fill="white"/>
</svg>
