<svg width="845" height="96" viewBox="0 0 845 96" fill="none" xmlns="http://www.w3.org/2000/svg">
<path d="M49.1299 95.3C35.5232 95.3 24.0832 91.097 14.8099 82.69C5.53657 74.283 0.899902 62.7133 0.899902 47.98C0.899902 34.3733 5.1899 23.02 13.7699 13.92C22.4366 4.81999 34.2232 0.269989 49.1299 0.269989C55.8899 0.269989 62.6066 1.78669 69.2799 4.81999C75.9532 7.76669 81.7599 12.23 86.6999 18.21L68.6299 33.68C62.9966 27.2667 56.4966 24.06 49.1299 24.06C43.0632 24.06 37.8199 26.1833 33.3999 30.43C29.0666 34.6767 26.8999 40.5267 26.8999 47.98C26.8999 54.5667 28.8932 60.1567 32.8799 64.75C36.9532 69.257 42.3699 71.51 49.1299 71.51C52.7699 71.51 56.3666 70.643 59.9199 68.91C63.4732 67.177 66.3766 64.923 68.6299 62.15L86.6999 77.75C82.4532 82.95 77.0799 87.197 70.5799 90.49C64.0799 93.697 56.9299 95.3 49.1299 95.3ZM163.289 1.69999H191.889L161.989 54.09V94H136.769V54.09L106.999 1.69999H135.339L149.509 29.91L163.289 1.69999ZM217.451 94V1.69999H253.331C264.424 1.69999 272.787 4.68999 278.421 10.67C284.054 16.5633 286.871 24.4933 286.871 34.46C286.871 44.6867 283.751 52.4867 277.511 57.86C271.271 63.1467 262.691 65.79 251.771 65.79H241.371V94H217.451ZM241.371 44.47H247.871C251.944 44.47 255.194 43.56 257.621 41.74C260.047 39.92 261.261 37.32 261.261 33.94C261.261 30.9067 260.091 28.3933 257.751 26.4C255.497 24.4067 252.204 23.41 247.871 23.41H241.371V44.47ZM315.408 94V1.69999H340.368V38.49H368.188V1.69999H393.278V94H368.188V60.33H340.368V94H315.408ZM426.438 94V1.69999H487.798V23.67H450.358V37.58H479.608V59.03H450.358V72.03H490.528V94H426.438ZM596.506 94H567.776L550.356 65.79H544.636V94H520.716V1.69999H557.636C568.816 1.69999 577.223 4.68999 582.856 10.67C588.49 16.5633 591.306 24.4933 591.306 34.46C591.306 47.8067 586.063 56.95 575.576 61.89V62.02L596.506 94ZM544.636 23.41V44.47H552.176C556.163 44.47 559.413 43.56 561.926 41.74C564.44 39.92 565.696 37.32 565.696 33.94C565.696 30.9067 564.526 28.3933 562.186 26.4C559.846 24.4067 556.51 23.41 552.176 23.41H544.636ZM623.497 94V1.69999H648.327V72.03H684.987V94H623.497ZM714.103 94V1.69999H739.193V94H714.103ZM825.597 44.6C838.25 47.8933 844.577 55.6933 844.577 68C844.577 75.8 842.063 82.083 837.037 86.85C832.01 91.617 824.773 94 815.327 94H772.947V1.69999H809.217C819.53 1.69999 827.2 3.69329 832.227 7.67999C837.253 11.58 839.767 17.0833 839.767 24.19C839.767 34.07 835.043 40.7867 825.597 44.34V44.6ZM796.867 23.15V38.1H804.927C807.96 38.1 810.387 37.45 812.207 36.15C814.027 34.85 814.937 33.03 814.937 30.69C814.937 28.4367 814.07 26.6167 812.337 25.23C810.603 23.8433 808.047 23.15 804.667 23.15H796.867ZM807.787 72.81C811.167 72.81 813.853 72.073 815.847 70.6C817.927 69.127 818.967 67.047 818.967 64.36C818.967 61.8467 818.013 59.8533 816.107 58.38C814.287 56.9067 811.47 56.17 807.657 56.17H796.867V72.81H807.787Z" fill="white"/>
</svg>
